<svg xmlns="http://www.w3.org/2000/svg" viewBox="0 0 120 120" role="img" aria-label="Mint portrait avatar">
  <rect width="120" height="120" rx="60" fill="#E0F5EC"/>
  <path d="M17 120c4-28 20-42 43-42s39 14 43 42" fill="#4EAD86"/>
  <circle cx="60" cy="54" r="30" fill="#966047"/>
  <path d="M30 49c1-24 13-37 31-37 19 0 30 14 31 37-9-10-19-15-31-15s-22 5-31 15Z" fill="#1F2422"/>
  <circle cx="49" cy="56" r="3" fill="#1F2422"/><circle cx="71" cy="56" r="3" fill="#1F2422"/>
  <path d="M51 68c6 5 12 5 18 0" fill="none" stroke="#623934" stroke-width="3" stroke-linecap="round"/>
  <path d="M43 43c4-2 8-2 12 0M66 43c4-2 8-2 11 0" fill="none" stroke="#1F2422" stroke-width="2" stroke-linecap="round"/>
</svg>
